<svg fill="none" height="32" viewBox="0 0 32 32" width="32" xmlns="http://www.w3.org/2000/svg" xmlns:xlink="http://www.w3.org/1999/xlink"><filter id="a" color-interpolation-filters="sRGB" filterUnits="userSpaceOnUse" height="30.7952" width="30.7952" x=".60241" y=".819277"><feFlood flood-opacity="0" result="BackgroundImageFix"/><feColorMatrix in="SourceAlpha" result="hardAlpha" type="matrix" values="0 0 0 0 0 0 0 0 0 0 0 0 0 0 0 0 0 0 127 0"/><feOffset dy=".216867"/><feGaussianBlur stdDeviation=".198795"/><feColorMatrix type="matrix" values="0 0 0 0 0 0 0 0 0 0 0 0 0 0 0 0 0 0 0.4 0"/><feBlend in2="BackgroundImageFix" mode="normal" result="effect1_dropShadow_270_658"/><feBlend in="SourceGraphic" in2="effect1_dropShadow_270_658" mode="normal" result="shape"/></filter><filter id="b" color-interpolation-filters="sRGB" filterUnits="userSpaceOnUse" height="25.8051" width="25.6254" x="3.2771" y="3.27704"><feFlood flood-opacity="0" result="BackgroundImageFix"/><feBlend in="SourceGraphic" in2="BackgroundImageFix" mode="normal" result="shape"/><feColorMatrix in="SourceAlpha" result="hardAlpha" type="matrix" values="0 0 0 0 0 0 0 0 0 0 0 0 0 0 0 0 0 0 127 0"/><feOffset dx=".179618" dy=".359235"/><feGaussianBlur stdDeviation=".359235"/><feComposite in2="hardAlpha" k2="-1" k3="1" operator="arithmetic"/><feColorMatrix type="matrix" values="0 0 0 0 0 0 0 0 0 0 0 0 0 0 0 0 0 0 0.1 0"/><feBlend in2="shape" mode="normal" result="effect1_innerShadow_270_658"/></filter><linearGradient id="c" gradientUnits="userSpaceOnUse" x1="17.7349" x2="17.7349" y1="31" y2=".963856"><stop offset="0" stop-opacity="0"/><stop offset="1"/></linearGradient><radialGradient id="d" cx="0" cy="0" gradientTransform="matrix(5.35702741 15.73625467 -17.16257195 5.84258265 15.163 11.9822)" gradientUnits="userSpaceOnUse" r="1"><stop offset="0" stop-color="#fff"/><stop offset=".5625" stop-color="#fffaf8"/><stop offset="1" stop-color="#edd7cb"/></radialGradient><linearGradient id="e" gradientUnits="userSpaceOnUse" x1="16.0001" x2="16.0001" y1="6.76964" y2="25.2303"><stop offset=".354167" stop-color="#e55b20"/><stop offset="1" stop-color="#f29066"/></linearGradient><clipPath id="f"><path d="m0 0h32v32h-32z"/></clipPath><mask id="g" height="30" maskUnits="userSpaceOnUse" width="30" x="1" y="1"><path clip-rule="evenodd" d="m31 10.3845c0-.3585 0-.7165-.002-1.075-.002-.3015-.0055-.6035-.0135-.905-.0175-.6575-.0565-1.3205-.173-1.9705-.1185-.66-.312-1.274-.6175-1.8735-.3-.5895-.6915-1.128-1.159-1.5955-.4675-.467-1.006-.859-1.5955-1.159-.599-.305-1.213-.4985-1.8725-.617-.6505-.117-1.3135-.1555-1.971-.1735-.302-.008-.6035-.0115-.9055-.0135-.358-.002-.7165-.002-1.075-.002h-11.231c-.358 0-.7165 0-1.0745.002-.302.002-.604.0055-.9055.0135-.6575.018-1.321.0565-1.971.1735-.6595.1185-1.2735.312-1.8725.617-.5895.3-1.1285.692-1.5955 1.159-.4675.4675-.859 1.006-1.159 1.5955-.3055.5995-.499 1.2135-.6175 1.8735-.1165.65-.1555 1.313-.173 1.9705-.008.3015-.012.6035-.0135.905-.0025.3585-.0025.7165-.0025 1.075v11.231c0 .3585 0 .7165.0025 1.075.0015.3015.0055.6035.0135.905.0175.6575.0565 1.3205.173 1.9705.1185.66.312 1.2745.6175 1.874.3.589.6915 1.1275 1.159 1.5945.467.468 1.006.8595 1.5955 1.1595.599.305 1.213.4985 1.8725.617.65.1165 1.3135.156 1.971.1735.3015.008.6035.0115.9055.0135.358.002.7165.002 1.0745.002h11.231c.3585 0 .717 0 1.075-.002.302-.002.6035-.0055.9055-.0135.6575-.0175 1.3205-.057 1.971-.1735.6595-.1185 1.2735-.312 1.8725-.617.5895-.3 1.128-.6915 1.5955-1.1595.4675-.467.859-1.0055 1.159-1.5945.3055-.5995.499-1.214.6175-1.874.1165-.65.1555-1.313.173-1.9705.008-.3015.0115-.6035.0135-.905.002-.3585.002-.7165.002-1.075z" fill="#fff" fill-rule="evenodd"/></mask><mask id="h" height="30" maskUnits="userSpaceOnUse" width="30" x="1" y="1"><path d="m1 1h30v30h-30z" fill="#fff"/></mask><g clip-path="url(#f)"><g filter="url(#a)"><g mask="url(#g)"><path d="m1 1h30v30h-30z" fill="#fc8f24"/><path d="m1 1h30v30h-30z" fill="url(#c)" fill-opacity=".2"/><g mask="url(#h)"><g clip-rule="evenodd" fill-rule="evenodd" filter="url(#b)"><path d="m16 28.7229c7.0267 0 12.7229-5.6963 12.7229-12.7229 0-7.02672-5.6962-12.72296-12.7229-12.72296-7.02666 0-12.7229 5.69624-12.7229 12.72296 0 7.0266 5.69624 12.7229 12.7229 12.7229z" fill="url(#d)"/><path d="m16 25.2303c5.0978 0 9.2303-4.1326 9.2303-9.2303 0-5.0978-4.1325-9.23039-9.2303-9.23039s-9.23035 4.13259-9.23035 9.23039c0 5.0977 4.13255 9.2303 9.23035 9.2303zm-1.8755-14.3002-1.5932.8945 1.5932.9157zm.8813 2.3168v-3.0475c0-.3468-.3733-.56533-.6756-.39556l-2.8869 1.62086c-.3069.1723-.3092.6134-.004.7888l2.6852 1.5434v4.6326l-2.7249 1.5548c-.3055.1743-.3049.6149.001.7885l2.9278 1.6612c.3024.1715.6774-.0469.6774-.3945v-3.0981l4.0493-2.3105 2.719 1.5629c.3024.1738.6796-.0445.6796-.3933v-3.3424c0-.3482-.376-.5665-.6784-.394l-2.7186 1.5512zm0 1.0165v3.6233l3.1634-1.805zm4.9368 1.8211 1.6298.9368v-1.8667zm-5.8181 3.3197-1.6351.933 1.6351.9278zm3.9088-8.4669v1.7905l1.5737-.8898zm-.8813-.7377c0-.34845.3765-.56679.6789-.3937l2.8665 1.6407c.3052.1748.3041.6154-.0021.7885l-2.8665 1.6208c-.3023.1709-.6768-.0475-.6768-.3949zm.8813 11.0262v-1.7905l1.5737.9007zm-.2024-2.9219c-.3024-.1731-.6789.0452-.6789.3937v3.2614c0 .3474.3745.5658.6768.3948l2.8665-1.6207c.3062-.1731.3073-.6138.0021-.7885zm-7.2044-3.0874v1.7905l1.5737-.8897zm-.8813-.7377c0-.3484.3765-.5667.6789-.3936l2.8665 1.6407c.3052.1747.3041.6154-.0021.7885l-2.8665 1.6207c-.3023.171-.6768-.0474-.6768-.3948z" fill="url(#e)"/></g></g></g></g></g></svg>